<svg xmlns="http://www.w3.org/2000/svg" xmlns:xlink="http://www.w3.org/1999/xlink" width="220px" height="60px" viewBox="0 0 822.52 188"><defs><style>.cls-1{fill:url(#linear-gradient);}.cls-2{fill:url(#linear-gradient-2);}.cls-3{fill:#fff;}.cls-4{fill:url(#linear-gradient-3);}.cls-5{fill:url(#linear-gradient-4);}.cls-6{fill:url(#linear-gradient-5);}.cls-7{fill:url(#linear-gradient-7);}.cls-8{fill:url(#linear-gradient-8);}.cls-9{fill:url(#linear-gradient-9);}</style><linearGradient id="linear-gradient" x1="70.7" y1="-1086.47" x2="70.7" y2="-945.07" gradientTransform="matrix(1, 0, 0, -1, 0, -945.07)" gradientUnits="userSpaceOnUse"><stop offset="0" stop-color="#eb5c99"/><stop offset="0.77" stop-color="#613983"/></linearGradient><linearGradient id="linear-gradient-2" x1="70.6" y1="-1078.17" x2="70.6" y2="-953.37" xlink:href="#linear-gradient"/><linearGradient id="linear-gradient-3" x1="821.99" y1="557.35" x2="172.3" y2="557.35" gradientTransform="translate(0 -486)" gradientUnits="userSpaceOnUse"><stop offset="0.37" stop-color="#c63d77"/><stop offset="1" stop-color="#613983"/></linearGradient><linearGradient id="linear-gradient-4" x1="821.99" y1="580.75" x2="172.3" y2="580.75" xlink:href="#linear-gradient-3"/><linearGradient id="linear-gradient-5" x1="821.99" y1="604.05" x2="172.3" y2="604.05" xlink:href="#linear-gradient-3"/><linearGradient id="linear-gradient-7" x1="821.99" y1="557.4" x2="172.3" y2="557.4" xlink:href="#linear-gradient-3"/><linearGradient id="linear-gradient-8" x1="821.99" y1="580.7" x2="172.3" y2="580.7" xlink:href="#linear-gradient-3"/><linearGradient id="linear-gradient-9" x1="821.99" y1="580.62" x2="172.3" y2="580.62" xlink:href="#linear-gradient-3"/></defs><title>Taggbox logo</title><g id="Layer_2" data-name="Layer 2"><g id="Layer_1-2" data-name="Layer 1"><g id="Layer_2-2" data-name="Layer 2"><path class="cls-1" d="M70.7,141.4a70.7,70.7,0,1,1,70.7-70.7A70.82,70.82,0,0,1,70.7,141.4Zm0-135.7a65,65,0,1,0,65,65A65,65,0,0,0,70.7,5.7Z"/></g><g id="Layer_3" data-name="Layer 3"><path class="cls-2" d="M133,70.7A62.4,62.4,0,1,1,70.6,8.3,62.42,62.42,0,0,1,133,70.7Z"/></g><g id="Layer_4" data-name="Layer 4"><polygon class="cls-3" points="115.4 45.3 26 45.3 26 73.2 51.9 73.2 51.9 107.2 90.5 73.2 115.4 73.2 115.4 45.3"/></g><g id="Layer_5" data-name="Layer 5"><path class="cls-4" d="M230.2,126.8a8.22,8.22,0,0,1,2.5,6.1v.2a8.57,8.57,0,0,1-2.5,6,8.1,8.1,0,0,1-6,2.6h-7.5a26.06,26.06,0,0,1-18.9-7.8,25.68,25.68,0,0,1-7.8-18.8V56.8h-9.6a8.57,8.57,0,0,1-6-2.5,8,8,0,0,1-2.5-6v-.2a8.8,8.8,0,0,1,2.5-6.1,8.1,8.1,0,0,1,6-2.6H190V9.5a8.8,8.8,0,0,1,2.5-6.1,7.92,7.92,0,0,1,6-2.4h.3a8.47,8.47,0,0,1,6,2.4,8.38,8.38,0,0,1,2.5,6.1V39h.7v.3h16.2a8.26,8.26,0,0,1,6,2.6,8.38,8.38,0,0,1,2.5,6.1v.2a8.57,8.57,0,0,1-2.5,6,8,8,0,0,1-6,2.5H208v.4h-.7v57.8a8.75,8.75,0,0,0,2.7,6.5,9.07,9.07,0,0,0,6.6,2.8h7.5A9.59,9.59,0,0,1,230.2,126.8Z"/></g><g id="Layer_6" data-name="Layer 6"><path class="cls-5" d="M276,48.5a46.65,46.65,0,0,0-46.9,46.9c0,26.1,20.8,45.6,46.9,45.6,10.6,0,19.5-2.5,27.5-9.3,0,5.3,5.2,9.3,8.9,9.3a9,9,0,0,0,9.3-9.3V95.3C321.6,69.3,302.1,48.5,276,48.5Zm0,74.3c-15.6,0-28.8-11.8-28.8-27.5A29.2,29.2,0,0,1,276,66.5c15.6,0,27.5,13.3,27.5,28.9S291.6,122.8,276,122.8Z"/></g><g id="Layer_7" data-name="Layer 7"><path class="cls-6" d="M379.4,48.1a46.6,46.6,0,1,0,0,93.2,47.92,47.92,0,0,0,28.2-9.6v10.2a28.28,28.28,0,0,1-53.7,11.8,9.33,9.33,0,0,0-12.3-4.1,9.17,9.17,0,0,0-4.3,12.3,46.63,46.63,0,0,0,88.5-20.5V94.8A46.5,46.5,0,0,0,379.4,48.1Zm0,74.7a28.2,28.2,0,1,1,28.2-28.2A28.3,28.3,0,0,1,379.4,122.8Z"/></g><g id="Layer_8" data-name="Layer 8"><path class="cls-6" d="M483.5,48.1a46.6,46.6,0,0,0,0,93.2,48.15,48.15,0,0,0,28.2-9.6v10.2A28.28,28.28,0,0,1,458,153.7a9.33,9.33,0,0,0-12.3-4.1,9.09,9.09,0,0,0-4.3,12.3,46.27,46.27,0,0,0,42,26.1A46.78,46.78,0,0,0,530,141.4V94.8C529.9,69,509,48.1,483.5,48.1Zm0,74.7a28.2,28.2,0,1,1,28.2-28.2A28.3,28.3,0,0,1,483.5,122.8Z"/></g><g id="Layer_9" data-name="Layer 9"><path class="cls-7" d="M587,47.8a46.85,46.85,0,0,0-28.2,9.4V11a9.2,9.2,0,0,0-18.4,0V94.3c0,25.4,20.9,46.6,46.5,46.6a46.58,46.58,0,0,0,46.6-46.6A46.1,46.1,0,0,0,587,47.8Zm0,74.7a28.2,28.2,0,1,1,28.2-28.2A28.17,28.17,0,0,1,587,122.5Z"/></g><g id="Layer_10" data-name="Layer 10"><path class="cls-8" d="M691,48.1a46.6,46.6,0,1,0,46.6,46.6A46.65,46.65,0,0,0,691,48.1Zm0,74.7a28.2,28.2,0,1,1,28.2-28.2A28.3,28.3,0,0,1,691,122.8Z"/></g><g id="Layer_11" data-name="Layer 11"><path class="cls-9" d="M796.1,94.7l24.5-31.8a9.26,9.26,0,0,0-1.7-13,8.83,8.83,0,0,0-12.7,1.7l-21.7,28-21.7-28A9,9,0,0,0,750,49.9a9.25,9.25,0,0,0-1.7,13l24.5,31.8-24.5,31.8a9,9,0,0,0,1.7,12.8,9,9,0,0,0,12.8-1.5l21.7-28,21.7,28a9.3,9.3,0,0,0,7.2,3.5,8.66,8.66,0,0,0,5.5-2,9,9,0,0,0,1.7-12.8Z"/></g></g></g></svg>